/* XPM */
static char * monster_d1_xpm[] = {
"32 32 36 1",
" 	c #4D9262",
".	c #3E734E",
"+	c #5D1F1F",
"@	c #321111",
"#	c #2A0A0A",
"$	c #D4864B",
"%	c #C86D33",
"&	c #803F33",
"*	c #3E1313",
"=	c #BA3F2B",
"-	c #D35D3A",
";	c #7AB055",
">	c #D7674E",
",	c #A32916",
"'	c #ED9185",
")	c #3B1010",
"!	c #FEE4CD",
"~	c #761E05",
"{	c #C7692D",
"]	c #FF8F63",
"^	c #D4A654",
"/	c #D7904A",
"(	c #692300",
"_	c #DDD3C6",
":	c #000000",
"<	c #1E0600",
"[	c #C2AC98",
"}	c #FFFFFF",
"|	c #FCBCA7",
"1	c #FF9D90",
"2	c #280D09",
"3	c #F12C2C",
"4	c #421D15",
"5	c #9E0A0A",
"6	c #783200",
"7	c #E3D5CA",
"                                ",
"                       .        ",
"                      . .       ",
"                       .        ",
"       +@@+  ######  +@@+       ",
"      +$%&+@*==--==*@+&%$+      ",
"       &$%@#--------#@%%&       ",
"        &$%+=------=+%$&        ",
"       ; &#>========>#&         ",
"       ; #==>>>>>>>>=,#         ",
"       ; *==,=====,===#         ",
"       ; #==,=#===*,==,#        ",
"        #,==,*#,=**,,==#        ",
"        #,==#''#*''#,==#        ",
"      ) #,=#!~!!!!~!#=,# )      ",
" ;   ){) #=#!]!!!!]!#=,#){)     ",
"; ;  ){^)#,##!!''!!#==#)^{)     ",
" ;   )/(^#,#_#####*,*=#^(/)     ",
"     )/(:::<[}||||}#*:::(/)     ",
"     )/:1!1:2_}33}_2:1!1:/)     ",
"    )/(:!!!:24_55_42:!!!:(/)    ",
"    )/(:1!1:24455442:1!1:(/)    ",
"    )/(6:::[24455442[:::6(/)    ",
"    )/()  )<[744447[<)  )(/)    ",
"    )/)     <<7777<<     )/)    ",
"     )      ::<<<<::    ; )     ",
"            ::    ::    ; ;     ",
"                        ;       ",
"                                ",
"              ;                 ",
"             ; ;                ",
"              ;                 "};
