/* XPM */
static char * monster_l1_xpm[] = {
"32 32 27 1",
" 	c None",
".	c #2A0A0A",
"+	c #D35D3A",
"@	c #D7674E",
"#	c #BA3F2B",
"$	c #321111",
"%	c #5D1F1F",
"&	c #C86D33",
"*	c #D4864B",
"=	c #A32916",
"-	c #ED9185",
";	c #FEE4CD",
">	c #3E1313",
",	c #761E05",
"'	c #3B1010",
")	c #FF8F63",
"!	c #C7692D",
"~	c #D7904A",
"{	c #692300",
"]	c #1E0600",
"^	c #FCBCA7",
"/	c #783200",
"(	c #000000",
"_	c #FF9D90",
":	c #421D15",
"<	c #C2AC98",
"[	c #E3D5CA",
"                                ",
"                                ",
"                                ",
"                                ",
"                                ",
"            .......             ",
"          ..+@@@+++..           ",
"         .++@++++++++.          ",
"         .#+@++++$$%+#.         ",
"        .###+@@@$%&*%#.         ",
"        .####++$&&%**%.         ",
"        .#=####$&**%%#=.        ",
"        .#=#.###%%%###=.        ",
"        ....-.#######==.        ",
"         .;;;>#######===.       ",
"         .;,;>#####=#===.''     ",
"         .;);>=#.###====.!~'    ",
"          .-;>=#.##=====.!~'    ",
"           ..>=#..====.=.{{~'   ",
"           ]>==.^.====.=./{~'   ",
"          (]>==(((.===.=.//{~'  ",
"         (_]>=(_;_(==./..//{~'  ",
"         (]:>=(;;;(.=.//{{//{~' ",
"         (]>==(_;_(..]'/{'//{~' ",
"          (>==>(((<<]  '' '/{~' ",
"            >=>[<<]]       '{~' ",
"            >>>]]]          '~' ",
"               ((            '  ",
"                                ",
"                                ",
"                                ",
"                                "};
