/* XPM */
static char * monster_u1_xpm[] = {
"32 32 17 1",
" 	c #4D9262",
".	c #3E734E",
"+	c #380C06",
"@	c #D7674E",
"#	c #D35D3A",
"$	c #7AB055",
"%	c #BA3F2B",
"&	c #A32916",
"*	c #3B1010",
"=	c #C7692D",
"-	c #692300",
";	c #D4A654",
">	c #783200",
",	c #280D09",
"'	c #C2AC98",
")	c #1E0600",
"!	c #000000",
"                                ",
"                       .        ",
"                      . .       ",
"                       .        ",
"             ++++++             ",
"           ++@@@@@@++           ",
"          +#@######@#+          ",
"          +##########+          ",
"       $ +############+         ",
"       $ +###%####%###+         ",
"       $ +##%######%##+         ",
"       $++##%#%#%##%##++        ",
"        +%%&##%#%##%#%%+        ",
"        +%%&%#%#%&#%+%%+        ",
"      * +%%&%%%%%&%%+&%+ *      ",
" $   *=*+%%&%%&%%+&%+&%+*=*     ",
"$ $  *-;*%&&%%&%%&+%+&&*;-*     ",
" $   *--;**+%&+%%&+&%**;--*     ",
"     *->-;;****&%****;;->-*     ",
"     *->>--;;;;**;;;;-->>-*     ",
"    *->>>>>>---**--->>->>>-*    ",
"    *->>>>>>>**,+**>>>-->>-*    ",
"    *->>**>-*,,,,,,*->**>>-*    ",
"    *->*  **'',,,,''**  *>-*    ",
"    *-*     ))''''))     *-*    ",
"     *      !!))))!!    $ *     ",
"            !!    !!    $ $     ",
"                        $       ",
"                                ",
"              $                 ",
"             $ $                ",
"              $                 "};
