/* XPM */
static char * carott6agrass_xpm[] = {
"16 16 17 1",
" 	c #4D9262",
".	c #7AB055",
"+	c #DECD95",
"@	c #3E734E",
"#	c #435049",
"$	c #4A7E61",
"%	c #518969",
"&	c #39433D",
"*	c #426F58",
"=	c #8C3A4A",
"-	c #B34949",
";	c #BF6050",
">	c #A3444D",
",	c #B7524B",
"'	c #C47162",
")	c #78313F",
"!	c #994050",
"          ..  . ",
"     ++++++.@.. ",
" .  +######+..@ ",
" .  +#$%%$&+@@  ",
" .   +#*#$*&+   ",
"    +==&%$$*&+  ",
"   +=--&$&&*&+  ",
"   +=;;>&=&*&+  ",
"  +=,',>=)&&+   ",
"  +=;,->=)++    ",
" +=>-!==)+      ",
" +)!==))+       ",
" +))))++        ",
"  ++++          ",
"  @ @           ",
"   @            "};
