/* XPM */
static char * door_xpm[] = {
"16 16 9 1",
" 	c #754C60",
".	c #4D9262",
"+	c #7AB055",
"@	c #C49A6C",
"#	c #3E734E",
"$	c #DCB98A",
"%	c #90625D",
"&	c #AA7959",
"*	c #E8CFA6",
"  ........++..  ",
"@@ ........+# @@",
"@@ .        + @@",
"@@  @@@@@@@@  @@",
"$$ @%%%%%%%%@ $$",
"&& %%%%%%%%%% &&",
"&& %%&%%%%&%% &&",
"%% %%&%%%%&%% %%",
"&& %%&%%%%&%% &&",
"&& %%&%%%%&%% &&",
"&& %%&%%%%**% &&",
"%% %%&%%%%&%% %%",
"&& %%&%%%%&%% &&",
"&& %%&%%%%&%% &&",
"&& %%%%%%%%%% &&",
"                "};
