/* XPM */
static char * rabbit16grass_xpm[] = {
"16 16 7 1",
" 	c #4D9262",
".	c #7AB055",
"+	c #3E734E",
"@	c #311047",
"#	c #F7EFBA",
"$	c #B25C34",
"%	c #8B2747",
"          ..  . ",
"           .+.. ",
" .  @@    @@..+ ",
" . @##@  @##@+  ",
" . @$#@  @#$@   ",
"   @$#@  @#$@   ",
"   @$#@@@@#$@   ",
"   @########@   ",
"  @##########@  ",
"  @##@####@##@  ",
" @###@####@###@ ",
" @##%######%##@ ",
" @####@##@####@ ",
"  @####@@####@  ",
"  +@########@   ",
"   +            "};
