/* XPM */
static char * wooden16_xpm[] = {
"16 16 6 1",
" 	c #5B4A2A",
".	c #52422A",
"+	c #635232",
"@	c #5F4E2D",
"#	c #3D3121",
"$	c #493B27",
"  .++@@@@@@+++  ",
" +.+++   @@@    ",
"++#+   ++++@@+++",
"$###$$..$$$$$###",
" @++@   @@$++@  ",
"      @@@+.++++ ",
" @@@@+++++#+@   ",
"$....$$$####$$##",
"@++@@+$+++++++++",
"@@++@@#@++@@   @",
"   +++#@@@   @++",
"$$$#####$$..$###",
"++@@@@@+++   @#@",
"@@@        @@@$@",
"    ++@@@   @@$ ",
"$$..$$##$$$####$"};
