/* XPM */
static char * carott_xpm[] = {
"32 32 21 1",
" 	c #4D9262",
".	c #043325",
"+	c #206F3C",
"@	c #3E734E",
"#	c #348C36",
"$	c #13603E",
"%	c #CB3B18",
"&	c #0A4D3A",
"*	c #E6661E",
"=	c #FDAB2B",
"-	c #7AB055",
";	c #D36516",
">	c #FEE1BF",
",	c #FD7318",
"'	c #FECD72",
")	c #F99807",
"!	c #F84725",
"~	c #FD7820",
"{	c #DB6013",
"]	c #DF521B",
"^	c #FD7F26",
"                  ..            ",
"                 .++.  @..      ",
"                  .##.@ .#.     ",
"                   .##..##.     ",
"                   .+#++++.     ",
"                   .+#$$++.     ",
"             %%%%..&+&#$&&&..   ",
"            %**==%%&&&&&&&&&&.. ",
"       -   %=====;;%&&&&...&&&. ",
"       -   %==>==,;;%&&.   ...  ",
"       - -%===%%==,;;%.         ",
"       - %,,==,,===,;;%         ",
"         %=%='==%))),!;%        ",
"        %===>>===))))!~;%       ",
"       %===='=**=))))!~;%       ",
" -     %===%====)%%)),,;%       ",
"- -   %=='=%====),,))~;;%       ",
" -    %='>==%%))))),%;;%        ",
"     %=,,===,,)){),,;;%         ",
"     %=%%>==)))))],;;%          ",
"    %====%%))))),,;;%           ",
"    %====,,{{)),,;%%            ",
"   %%%===))))^%%;%              ",
"   %,,===){),,;;;%              ",
"   %==%=)))],;;%%         -     ",
"  %=='=))),,;;%         - -     ",
"  %='>)),,;;%%          - -     ",
"  %===),,;%%            -       ",
"   %==,;;%                      ",
"    %%%%%     -                 ",
"             - -                ",
"              -                 "};
