/* XPM */
static char * donut_xpm[] = {
"32 32 20 1",
" 	c #4D9262",
".	c #C53C46",
"+	c #3E734E",
"@	c #FEA8E1",
"#	c #FEB7DB",
"$	c #FFE1ED",
"%	c #FAFAFA",
"&	c #FEBFD8",
"*	c #FE99E3",
"=	c #EF677A",
"-	c #FE7FBD",
";	c #B36F1A",
">	c #D99D18",
",	c #FE82AB",
"'	c #FDC245",
")	c #FFE8D9",
"!	c #FEEE79",
"~	c #FE89D5",
"{	c #7AB055",
"]	c #FE879C",
"                                ",
"           ......      +        ",
"        ...@@#@##..   + +       ",
"      ..######@####..  +        ",
"     .#####$##%$&####..         ",
"    .@@##$$$%%%$$&###*@.        ",
"   .=#####%%###########-.       ",
"   .=###$%%#@####@##$$##=.      ",
"  ;>.,##$%##@....@##$%$#@=.     ",
"  ;>.,##$%##.>>>>..@#&$%##=.    ",
" ;>>.,##$$##.>'''>>.####$@=.    ",
" ;>>.=,@###@....'''>.@#)$#-=.   ",
" ;''.=,-####.   .!!>.@#&&#-=.   ",
" ;'''.=,#####.  .>'>>.####--=.  ",
" ;'''>.=,,###@.  .>>>.@###--=.  ",
" ;'!''.=,,####@.  .>.@###~--=.  ",
"{;'!!'.=,,,##@@@....@#$##---=.  ",
" ;>!!!.=,,,###&#@@@@@&$#@---=.  ",
"  ;'!'.=-,,@##$$#@##*%%#----=.  ",
"  ;>!.=----]#@#$%&&%##&@---=.;  ",
"   ;>.=-==-,####%%%%##@--===.;  ",
"    .=-=..=---@@@@@@@@,-=...>;  ",
"    .==.'>.=--~--------=.>''';  ",
"     ..>!'.=----------=.>''';   ",
"       ;>!>.=--------==.>'>;    ",
"        ;>'.=-------=..>!>;     ",
"         ;>.=------=.>'!>;{     ",
"          ;.===---=.>!;;;       ",
"            ...===.;;;          ",
"              {...              ",
"             { {                ",
"              {                 "};
