/* XPM */
static char * door_2_xpm[] = {
"32 32 18 1",
" 	c #4D9262",
".	c #3E734E",
"+	c #7C7C7C",
"@	c #959595",
"#	c #898989",
"$	c #A3A3A3",
"%	c #B0B0B0",
"&	c #BCBCBC",
"*	c #CACACA",
"=	c #2B2B2B",
"-	c #7AB055",
";	c #D3D3D3",
">	c #DCDCDC",
",	c #E7E7E7",
"'	c #5D5D5D",
")	c #717171",
"!	c #396E49",
"~	c #676767",
"                                ",
"                       .        ",
"                      . .       ",
"       +          +    .        ",
"       ++        ++             ",
"       +@+#$%$@#+@+             ",
"       +@$%&*&%%$@@+            ",
"      +$$%&****&%$$+            ",
"      +%%=*****=&%%#  -         ",
"      +&&=**+**=*&&@.--         ",
"      +****+*+*****$--.         ",
"      +************;$.          ",
"      #***********;>$           ",
"      @**********;>,>$          ",
"      $***********;>;$          ",
" -    $************;>,$         ",
"- -   $***********;>,>$         ",
" -    $************;>;*$        ",
"      $****************$        ",
"      $****************&$       ",
"      $*******&&&&****&&$       ",
"      @******&')##&&&&$%$       ",
"      #@%$%@%'+#@$####%%$       ",
"     !+&&%+&&'+#@$$$$%%$$       ",
"    !!!+++!+++'''~)+#@$$! -     ",
"     !!!!!!!!!!!!!!!!!!!- -     ",
"                        - -     ",
"                        -       ",
"                                ",
"              -                 ",
"             - -                ",
"              -                 "};
