/* XPM */
static char * door_01_xpm[] = {
"32 32 18 1",
" 	c #4D9262",
".	c #3E734E",
"+	c #717171",
"@	c #7C7C7C",
"#	c #898989",
"$	c #959595",
"%	c #A3A3A3",
"&	c #7AB055",
"*	c #B0B0B0",
"=	c #BCBCBC",
"-	c #CACACA",
";	c #DCDCDC",
">	c #E7E7E7",
",	c #2B2B2B",
"'	c #D3D3D3",
")	c #396E49",
"!	c #676767",
"~	c #5C863F",
"                                ",
"                       . ++     ",
"                      . +@@+    ",
"                       .+##+    ",
"                        #$$#    ",
"                        $%%$    ",
"                  &     $%$     ",
"  @          @    &&    $%$     ",
"  @@   &    @@    &&  & $%$     ",
"  @$@#%*%$#@$@     &.&& $%$     ",
"  @$%*=-=**%$$@*****&&. %*%     ",
" @%%*=----=*%%@;>;;>**  %=%     ",
" @**,-----,=**@';>;;>;% %-%     ",
" @==,--@--,-==--';;';;'%--%     ",
" @----@-@--------''-''----%     ",
" #------------------------%     ",
"&$------------------------%     ",
" %-----------------------%      ",
" %----------------------%       ",
"  %---------------=-----%       ",
"  %---------------#*====%       ",
"  %---===----=-----@%***@       ",
"  %==*@@@%==*@$#####@$$$@       ",
" )@%%@)))@%%@))!!!!))+##@))     ",
")))@@)))))@@)))!!!))))++))~)    ",
" )))))))))))))))))))))))~)~     ",
"                        & &     ",
"                        &       ",
"                                ",
"              &                 ",
"             & &                ",
"              &                 "};
