/* XPM */
static char * fish_xpm[] = {
"32 32 8 1",
" 	c #4D9262",
".	c #3E734E",
"+	c #12193F",
"@	c #214A85",
"#	c #4C88D0",
"$	c #7FC2E8",
"%	c #FFFFFF",
"&	c #7AB055",
"                                ",
"                       .        ",
"                      . .       ",
"                       .        ",
"               +++++++++        ",
"            +++@@@@+@@@@+       ",
"      +++ ++@@@@@@@@@@@@+       ",
"    ++#@@+@@@+########@@+       ",
"    +#@@+@+#@+##$$$$$$#+        ",
"     +@+@@+#+#$$%%$$$$#+        ",
"       +@+##+$%%$$$$$#+         ",
"      +@@+##$%%$$$$#++          ",
"      +@@@##$$$$$$++            ",
"      +@@##$$$$$++@+            ",
"      +@@##$$$$+@@@#+           ",
" &    +@@##$$$+  +##+           ",
"& &   +@@##$$+    +++           ",
" &    +@@@#$$+                  ",
"       +@@##$+                  ",
"       +@@@###+     +++++       ",
"        +@@@###+  ++$$#@+       ",
"         +@@@@##++$$@@+++       ",
"          ++@@@@#$$$$#@+        ",
"           .++@@#$$@@++         ",
"              +++#$$#@+   &     ",
"                 ++#@@+ & &     ",
"                   +@+  & &     ",
"                    ++  &       ",
"                                ",
"              &                 ",
"             & &                ",
"              &                 "};
