/* XPM */
static char * monster_l2_xpm[] = {
"32 32 31 1",
" 	c #4D9262",
".	c #3E734E",
"+	c #2A0A0A",
"@	c #D35D3A",
"#	c #D7674E",
"$	c #BA3F2B",
"%	c #321111",
"&	c #5D1F1F",
"*	c #C86D33",
"=	c #D4864B",
"-	c #7AB055",
";	c #000000",
">	c #A32916",
",	c #FF9D90",
"'	c #FEE4CD",
")	c #ED9185",
"!	c #3E1313",
"~	c #761E05",
"{	c #3B1010",
"]	c #FF8F63",
"^	c #C7692D",
"/	c #D7904A",
"(	c #692300",
"_	c #1E0600",
":	c #FCBCA7",
"<	c #783200",
"[	c #B7B29B",
"}	c #C2AC98",
"|	c #280D09",
"1	c #421D15",
"2	c #E3D5CA",
"                                ",
"                       .        ",
"                      . .       ",
"                       .        ",
"          +++++++               ",
"        ++@###@@@++             ",
"       +@@#@@@@@@@@+            ",
"       +$@#@@@@%%&@$+           ",
"      +$$$@###%&*=&$+ -         ",
"      +$$$$@;;;*&==&+--         ",
"      +$>$$;,',;=&&$>+.         ",
"      +$>$+;''';&$$$>+          ",
"      ++++);,',;$$$>>+          ",
"       +'''!;;;$$$$>>>+         ",
"       +'~'!$$$$$>$>>>+{{       ",
" -     +']'!>$+$$$>>>>+^/{      ",
"- -     +)'!>$+$$>>>>>+^/{      ",
" -       ++!>$++>>>>+>+((/{     ",
"         _!>>+:+>>>>+>+<(/{     ",
"         _!>>![[+>>>+>+<<(/{    ",
"        ;_!>>!}|+>>+<++<<(/{    ",
"       ;_1!>>!|||+>+<<((<<(/{   ",
"       ;_!>>!1|||++_{<({<<(/{   ",
"       ;,!>>!1||}}_  {{ {<(/{   ",
"        ;;!>!2}}__       {(/{   ",
"          !!!___        - {/{   ",
"             ;;         - -{    ",
"                        -       ",
"                                ",
"              -                 ",
"             - -                ",
"              -                 "};
