/* XPM */
static char * monster_d2_xpm[] = {
"32 31 36 1",
" 	c #4D9262",
".	c #3E734E",
"+	c #5D1F1F",
"@	c #321111",
"#	c #2A0A0A",
"$	c #D4864B",
"%	c #C86D33",
"&	c #803F33",
"*	c #3E1313",
"=	c #BA3F2B",
"-	c #D35D3A",
";	c #7AB055",
">	c #D7674E",
",	c #A32916",
"'	c #000000",
")	c #FF9D90",
"!	c #FEE4CD",
"~	c #ED9185",
"{	c #3B1010",
"]	c #761E05",
"^	c #C7692D",
"/	c #FF8F63",
"(	c #D4A654",
"_	c #D7904A",
":	c #692300",
"<	c #DDD3C6",
"[	c #1E0600",
"}	c #C2AC98",
"|	c #FFFFFF",
"1	c #FCBCA7",
"2	c #280D09",
"3	c #F12C2C",
"4	c #783200",
"5	c #421D15",
"6	c #9E0A0A",
"7	c #E3D5CA",
"                                ",
"                       .        ",
"                      . .       ",
"                       .        ",
"                                ",
"       +@@+  ######  +@@+       ",
"      +$%&+@*==--==*@+&%$+      ",
"       &$%@#--------#@%%&       ",
"       ;&$%+=------=+%$&        ",
"       ; &#>========>#&         ",
"       ; #==>>>>>>>>=,#         ",
"       ; *==,=====,==='''       ",
"         #==,=#===*,=')!)'      ",
"        #,==,*#,=**,,'!!!'      ",
"        #,==#~~#*~~#,')!)'      ",
" ;    { #,=#!]!!!!]!#='''{      ",
"; ;  {^{ #=#!/!!!!/!#=,#{^{     ",
" ;   {^({#,##!!~~!!#==#{(^{     ",
"     {_:(#,#<#####*,*=#(:_{     ",
"     {_::(#[}|1111|#*,#::_{     ",
"     {_:'''[2<|33|<2#,#4:_{     ",
"    {_:')!)'25<66<52#,#44:_{    ",
"    {_:'!!!'25566552##::4:_{    ",
"    {_:')!)'25566552}[{{4:_{    ",
"    {_:{'''[}755557}[{  {:_{    ",
"    {_{     [[7777[[    ;{_{    ",
"     {      ''[[[[''    ; {     ",
"            ''    ''    ;       ",
"                                ",
"              ;                 ",
"             ; ;                "};
