/* XPM */
static char * monster_r2_xpm[] = {
"32 32 30 1",
" 	c #4D9262",
".	c #3E734E",
"+	c #2A0A0A",
"@	c #D35D3A",
"#	c #D7674E",
"$	c #7AB055",
"%	c #BA3F2B",
"&	c #5D1F1F",
"*	c #321111",
"=	c #000000",
"-	c #D4864B",
";	c #C86D33",
">	c #A32916",
",	c #ED9185",
"'	c #3E1313",
")	c #FEE4CD",
"!	c #3B1010",
"~	c #761E05",
"{	c #C7692D",
"]	c #D4A654",
"^	c #FF8F63",
"/	c #692300",
"(	c #783200",
"_	c #FCBCA7",
":	c #1E0600",
"<	c #B7B29B",
"[	c #280D09",
"}	c #FF9D90",
"|	c #421D15",
"1	c #C2AC98",
"                                ",
"                       .        ",
"                      . .       ",
"                       .        ",
"                                ",
"              +++++++           ",
"            ++@@@###@++         ",
"           +@@@@@@@@#@@+        ",
"       $  +%@&**@@@@#@%+=       ",
"       $  +%&-;&*###@%%%+       ",
"       $ $+&--&;;*@@%%%%+       ",
"       $ +>%&&--;*%%%%>%+       ",
"         +>%%%&&&%%%+%>%+       ",
"         +>>%%%%%%%+,++++       ",
"        +>>>%%%%%%%')))+        ",
" $    !!+>>>%>%%%%%')~)+        ",
"$ $  !{]+>>>>%%%+%>')^)+        ",
" $   !/]+>>>>>%%+%>'),+         ",
"    !/(/+>+>>>>++%>'++          ",
"    !/((+>+>>>>+_+>>':          ",
"    !/((+>+>>>+<<'>>':          ",
"   !/(((++(+>>+[===>':          ",
"   !/((//((+>+[=})}='|:         ",
"   !/((!/(!:++[=)))=>':         ",
"   !/(! !/! :11=})}=>'    $     ",
"   !/!   !   ::1===>'   $ $     ",
"    !          :::'''   $ $     ",
"                ==      $       ",
"                                ",
"              $                 ",
"             $ $                ",
"              $                 "};
