/* XPM */
static char * pizza_xpm[] = {
"32 32 41 1",
" 	c #4D9262",
".	c #3E734E",
"+	c #A84007",
"@	c #FAFEA7",
"#	c #F8FE8C",
"$	c #FDE55A",
"%	c #FDF244",
"&	c #FAFEB1",
"*	c #D79321",
"=	c #F9FE9C",
"-	c #F4C735",
";	c #FDA363",
">	c #FEEA8E",
",	c #FDF34A",
"'	c #FDAC5C",
")	c #DC6B16",
"!	c #FD3F42",
"~	c #A7331F",
"{	c #7AB055",
"]	c #FEEE9E",
"^	c #FD7D50",
"/	c #FC8546",
"(	c #DA8A43",
"_	c #FECA85",
":	c #F6462F",
"<	c #FDF136",
"[	c #C83E27",
"}	c #FEEE79",
"|	c #FD3E3A",
"1	c #F2C44F",
"2	c #F5C259",
"3	c #F6FE70",
"4	c #C92C2E",
"5	c #FEFD6F",
"6	c #F4F253",
"7	c #F1CD49",
"8	c #F4C632",
"9	c #FEC997",
"0	c #F0C153",
"a	c #F4C82F",
"b	c #ECD349",
"                                ",
"                       .        ",
"              +++     . .       ",
"            ++@#$+     .        ",
"           +$%&@#*+             ",
"         ++=@@%*-;+             ",
"       ++@>%*,---'#+            ",
"     ++#%@#,)!--,,##+           ",
"    +==#%,*!;;,,,~~#>+{         ",
"  ++@%%]%%^;-,,,/~~(_+{         ",
" +,@=@,*!~~-,,~~~:~~~,+         ",
"+@%%@<!/:~~>,,~~[[[:[,}+        ",
"+@=@,~^:[|/~,,#,~[[~,,>+        ",
" +%%,~;[[[[~,#,,@~~,,,,=+       ",
" +12%,,[[[~,,#==@,,,,,,@+       ",
" +*11},---33~~::~,,},=>~~+      ",
"{ +**11,,,,,:4[4~@},,@~:~:+     ",
" { ++***1-,,,,~4[:@@@=(~[~+     ",
"     +++**1-,,,,,[@@,,,~~[:+    ",
"        ++**111--,53,,'^}~~+    ",
"          ++*****,%3~~~~/6=}+   ",
"           .+++**718-~[[~:,95+  ",
"          . .  ++****-,~~~/,}+  ",
"           .     +++**0-,%3@==+ ",
"                    ++**2a8bb3+ ",
"                      +***2288+ ",
"                       +++****+ ",
"                        { ++++  ",
"                                ",
"              {                 ",
"             { {                ",
"              {                 "};
