/* XPM */
static char * player_img_right_xpm[] = {
"32 32 32 1",
" 	c #4D9262",
".	c #000000",
"+	c #3E734E",
"@	c #4E5378",
"#	c #9499B0",
"$	c #3C3D60",
"%	c #1A1627",
"&	c #282544",
"*	c #9296AD",
"=	c #030000",
"-	c #7AB055",
";	c #F5C342",
">	c #3E1E05",
",	c #E6A632",
"'	c #FEE4CD",
")	c #00575C",
"!	c #00969D",
"~	c #ED9185",
"{	c #6D4F19",
"]	c #FCBCA7",
"^	c #221F3A",
"/	c #D69F3A",
"(	c #141325",
"_	c #CDCCD5",
":	c #EBBE4B",
"<	c #2A110F",
"[	c #FF9D90",
"}	c #47211B",
"|	c #FFFFFF",
"1	c #438055",
"2	c #8F8295",
"3	c #6B9A4A",
"                                ",
"              ...      +        ",
"             .@@@.    + +       ",
"         ....@@@#..    +        ",
"         .@.@@@@@#..            ",
"          .$@@@@@@$.            ",
"        ..%$$$$$$$$&..          ",
"       .%*%%$$$$$$&&#&.         ",
"      =%%%*%%%%&&&&#&&&=        ",
"      .%%%%****####&&&&.        ",
"       .%%%%%%%&&&&&&&.         ",
"       -..%%%%%&&&&&..;>        ",
"        >,..........,,,>        ",
"        >;,;;;;;>';;>>>         ",
"       >;;,;,;;>'''''>          ",
" -     >;,;;,;;>''')'>          ",
"- -    >,,>;,;;;>''!'>          ",
" -     >,>,;;,;;>''~>           ",
"      >,,>,;;>;;;>>>            ",
"     {>,,>,;>]>;,>^^            ",
"     {/>>,,>(_...;>^.           ",
"    {//::>,><.['[.><<<<<<<<<<<  ",
"    {{{{::>,>.'''.}}}}}}}}}}}<  ",
"    {//::::><.['[.><<<<<<<<<<<  ",
"     {//{:/{((...,,>|     -     ",
"     {{{::{((((^^>>|_1  - -     ",
"     1{//{2((((^^^^_111 - -     ",
"     11{{1122((^^__1111 -       ",
"      111111122__11111          ",
"         1111131111             ",
"             - -                ",
"              -                 "};
