/* XPM */
static char * player_img_down_xpm[] = {
"32 32 35 1",
" 	c #4D9262",
".	c #000000",
"+	c #4E5378",
"@	c #3E734E",
"#	c #D4D7DA",
"$	c #282544",
"%	c #3C3D60",
"&	c #9499B0",
"*	c #030000",
"=	c #2A110F",
"-	c #47211B",
";	c #7AB055",
">	c #F5C342",
",	c #3E1E05",
"'	c #7B3F16",
")	c #FEE4CD",
"!	c #00575C",
"~	c #E6A632",
"{	c #00969D",
"]	c #ED9185",
"^	c #FFFFFF",
"/	c #141325",
"(	c #FCBCA7",
"_	c #FF9D90",
":	c #221F3A",
"<	c #D79928",
"[	c #8F8295",
"}	c #6E4D11",
"|	c #9BB6C5",
"1	c #6D4F19",
"2	c #EBBE4B",
"3	c #438055",
"4	c #D69F3A",
"5	c #CDCCD5",
"6	c #6B9A4A",
"                ...             ",
"               .+++.   @        ",
"              .+#+++... @       ",
"             .+##+..++.@        ",
"           ..++++++...          ",
"         ..$%%++++%%$..         ",
"        .$&$$##%%%##$&$.        ",
"       *===&$###&###&$$$*       ",
"       *=-=$&&&&&&&&$$$$*       ",
"       ;=-=$$$$$$$$$$$$*        ",
"       ;=-=$$$$$$$$$$.*         ",
"       ;=-=*........*>>,        ",
"        =-=')''')'')'>>,        ",
"        =-=')))))))))'>,        ",
"        =-=')!))))!)'>~,        ",
" ;      =-=,){)))){),>,         ",
"; ;     =-=>,))]])),~>,         ",
" ;      =-=,^,,,,,,^,>>,        ",
"        ...//^((((^/,...        ",
"       ._)_./:^^^^:,._)_.       ",
"       .)))./::::::/.))).       ",
"       ._)_./:<::<:/._)_.       ",
"        .../[:}::}:[/...        ",
"        =-=/[^^^^^^[/[          ",
"        ===//|^^^^|//[    ;     ",
"       12221//||||//[333; ;     ",
"      14222415////5533336 ;     ",
"     12222222155553333336       ",
"    14212221241333333333        ",
"    14142124141333333           ",
"     114414411 ;                ",
"      1141411 ;                 "};
