/* XPM */
static char * player_img_left_xpm[] = {
"32 32 34 1",
" 	c #4D9262",
".	c #000000",
"+	c #3E734E",
"@	c #4E5378",
"#	c #9499B0",
"$	c #3C3D60",
"%	c #282544",
"&	c #1A1627",
"*	c #9296AD",
"=	c #7AB055",
"-	c #030000",
";	c #3E1E05",
">	c #F5C342",
",	c #E6A632",
"'	c #FEE4CD",
")	c #00575C",
"!	c #00969D",
"~	c #ED9185",
"{	c #221F3A",
"]	c #FCBCA7",
"^	c #2A110F",
"/	c #141325",
"(	c #47211B",
"_	c #D79928",
":	c #FF9D90",
"<	c #6D4F19",
"[	c #6E4D11",
"}	c #77767F",
"|	c #D69F3A",
"1	c #FFFFFF",
"2	c #8F8295",
"3	c #438055",
"4	c #CDCCD5",
"5	c #6B9A4A",
"                                ",
"                ...    +        ",
"               .@@@.  + +       ",
"              .#.@@..  +        ",
"             .#.$@.$..          ",
"            .$@.$$.$%.          ",
"          ..%$$.$.%%%&..        ",
"         .%#%%$$.$.%&&*&.       ",
"       =-%%%#%%%%...&*&&&-      ",
"       =.%%%%####****&&&&.      ",
"       = .%%%%%%%&&&&&&&.       ",
"       =;>..%%%%%&&&&&..        ",
"        ;,,,..........,;        ",
"         ;;;>>';>>>>>,>;        ",
"          ;''''';>>,>,>>;       ",
" =        ;')''';>>,>>,>;       ",
"= =       ;'!'';>>>,>;,,;       ",
" =         ;~'';>>,>>,;,;       ",
"            ;;;>>>;>>,;,,;      ",
"            {{;,>;];>,;,,;      ",
"^^^^^^^^^^^^{;>,.../;,,;;       ",
"((((((((((({_;,.:':.;,;<<       ",
"^^^^^^^^^^^{[{;.'''.,;}|<       ",
"           {{;,.:':.;//<        ",
"           1;,,;...///2<  =     ",
"         3341;;{{/////235 =     ",
"        33334{{{{////23353=     ",
"        3333344{{//2233353      ",
"         3333334422333333       ",
"            3353333333          ",
"             = =                ",
"              =                 "};
