/* XPM */
static char * player_xpm[] = {
"32 32 203 2",
"  	c #4D9262",
". 	c #3E734E",
"+ 	c #1E1928",
"@ 	c #1E1828",
"# 	c #1E1929",
"$ 	c #ACB2BF",
"% 	c #ACB1BE",
"& 	c #ADB1BF",
"* 	c #1C192A",
"= 	c #7AB055",
"- 	c #1D1727",
"; 	c #AEB2BF",
"> 	c #AFB4C1",
", 	c #1E182A",
"' 	c #1F1929",
") 	c #ADB2BE",
"! 	c #ACB2BE",
"~ 	c #AFB4C3",
"{ 	c #1B1729",
"] 	c #1C1928",
"^ 	c #1C1929",
"/ 	c #1C192B",
"( 	c #1D1829",
"_ 	c #B0B4C2",
": 	c #AFB3BF",
"< 	c #AFB3C1",
"[ 	c #1D182A",
"} 	c #AEB4BF",
"| 	c #FDBBDC",
"1 	c #F5AAAE",
"2 	c #B0B6C3",
"3 	c #FDECDD",
"4 	c #FDEBDE",
"5 	c #BC885F",
"6 	c #CA9569",
"7 	c #C99469",
"8 	c #EDD5C0",
"9 	c #B1B5C1",
"0 	c #FCBEDF",
"a 	c #B0B5C3",
"b 	c #1D1929",
"c 	c #FDBBDD",
"d 	c #F6AAAD",
"e 	c #FDEBDD",
"f 	c #FDECDE",
"g 	c #FEECDD",
"h 	c #FBBEDE",
"i 	c #B0B5C2",
"j 	c #201929",
"k 	c #AEB4C1",
"l 	c #E2D3C0",
"m 	c #C38D64",
"n 	c #201A28",
"o 	c #B47C56",
"p 	c #FDECE0",
"q 	c #1C1828",
"r 	c #ACB3C3",
"s 	c #FDECDF",
"t 	c #CA9974",
"u 	c #1D192C",
"v 	c #1E1A28",
"w 	c #1E1927",
"x 	c #755045",
"y 	c #C2895F",
"z 	c #1B1425",
"A 	c #1A1727",
"B 	c #C99974",
"C 	c #1D192B",
"D 	c #1E182B",
"E 	c #C39069",
"F 	c #FBF3EB",
"G 	c #BF8E68",
"H 	c #FCF2E9",
"I 	c #765447",
"J 	c #C38B5F",
"K 	c #1B1526",
"L 	c #FEECDE",
"M 	c #FEECDF",
"N 	c #191728",
"O 	c #AF7556",
"P 	c #1D172B",
"Q 	c #C6946D",
"R 	c #FAF1E7",
"S 	c #7F5948",
"T 	c #996851",
"U 	c #1E1829",
"V 	c #765347",
"W 	c #FCECDD",
"X 	c #FDC0E5",
"Y 	c #FEC2E4",
"Z 	c #CE9B73",
"` 	c #CD9B73",
" .	c #1C1729",
"..	c #1D1928",
"+.	c #B37C56",
"@.	c #CA9670",
"#.	c #1E1A2A",
"$.	c #1F1A2A",
"%.	c #ADB4C1",
"&.	c #ADB2C0",
"*.	c #DBCFC2",
"=.	c #CD966C",
"-.	c #CD956A",
";.	c #CE9A73",
">.	c #C6916A",
",.	c #1D172A",
"'.	c #C9936C",
").	c #FAF0E7",
"!.	c #1F1A29",
"~.	c #1D1729",
"{.	c #AEB3C0",
"].	c #A87154",
"^.	c #CD9569",
"/.	c #CC9266",
"(.	c #CA9265",
"_.	c #C89069",
":.	c #9D6A4F",
"<.	c #9E6A4D",
"[.	c #AAB3C7",
"}.	c #1F1A2B",
"|.	c #C8946C",
"1.	c #FBF0E6",
"2.	c #1F192B",
"3.	c #AEB5C6",
"4.	c #1F1928",
"5.	c #1E1A29",
"6.	c #9C684F",
"7.	c #AFB7C4",
"8.	c #ADB5C3",
"9.	c #AEB5C5",
"0.	c #AFB5C3",
"a.	c #B0B6C4",
"b.	c #AFB6C4",
"c.	c #B1B6C4",
"d.	c #9C6A4F",
"e.	c #9D6A4D",
"f.	c #1E192A",
"g.	c #1E192B",
"h.	c #C08E65",
"i.	c #C9956B",
"j.	c #1D1827",
"k.	c #1E1728",
"l.	c #AEB3BE",
"m.	c #1D1828",
"n.	c #92644C",
"o.	c #B8815A",
"p.	c #C68F64",
"q.	c #7B584A",
"r.	c #795648",
"s.	c #785548",
"t.	c #775447",
"u.	c #775446",
"v.	c #B0B4C3",
"w.	c #AFB4C2",
"x.	c #AFB5C1",
"y.	c #B2B6C3",
"z.	c #1F1C2B",
"A.	c #7A564A",
"B.	c #B67F59",
"C.	c #CA9266",
"D.	c #C99163",
"E.	c #B17856",
"F.	c #C99265",
"G.	c #CA9264",
"H.	c #1C1827",
"I.	c #AE7655",
"J.	c #C99065",
"K.	c #C99064",
"L.	c #1B1828",
"M.	c #1E1826",
"N.	c #755447",
"O.	c #AD7654",
"P.	c #C89064",
"Q.	c #C88F64",
"R.	c #CF9B6E",
"S.	c #D49B6F",
"T.	c #1A1829",
"U.	c #1D1826",
"V.	c #735347",
"W.	c #80594A",
"X.	c #B37D57",
"Y.	c #CE976B",
"Z.	c #CF986C",
"`.	c #FCEDDE",
" +	c #1A1828",
".+	c #765346",
"++	c #775246",
"@+	c #AE7958",
"#+	c #CD9769",
"$+	c #CF956B",
"%+	c #D39C75",
"&+	c #6E4C42",
"*+	c #765244",
"=+	c #1B1728",
"-+	c #A9B1C4",
";+	c #191427",
">+	c #AA7354",
",+	c #ADAFC0",
"'+	c #ADB1C3",
")+	c #1A1627",
"!+	c #AEB2C3",
"~+	c #FBE8DB",
"{+	c #B37955",
"                                                                ",
"                                              .                 ",
"                                            .   .               ",
"                                              .                 ",
"                                                                ",
"                    + + @                   @ #                 ",
"                  + $ % & *         =     - ; > ,               ",
"                  ' ) % ! ~ { ] ^ ^ * / ( _ : < [               ",
"              =   ' } | 1 2 3 3 4 5 6 7 8 9 0 a b               ",
"              =   ' > c d e 4 f 3 3 3 e g 3 h i b               ",
"              =   j k l 4 f f f f f f f f g f m (               ",
"              =   n o f 4 f f f f f f f f f f p q               ",
"                  ' r s 4 f 3 f f f f f e f f s t u             ",
"        @ v + #   w x y f e z f f f f f A f 4 f B C             ",
"      D E F G H # + I J 4 4 K 3 L L L M N f 4 f O P             ",
"  =   b Q R S T U # V W f 3 e 3 g X Y g f f f Z `  .            ",
"=   = ..+.@.#.$.%.&.*.=.-.f 3 4 L 4 4 f f f ;.;.>.  ,.          ",
"  =   ..'.).!.    ~.{.].^./.(.f f f f f f _.:.<.[.}.            ",
"      ..|.1.+ 2.  3.4.5.6.7.8.9.0.a.b.c.c.d.e.f.U               ",
"        g.h.i.f.4.' + + b + @ j.k.l.@ m.m.q b                   ",
"        b n.o.p.q.r.s.t.u.v.> k w.x.~ ~ y...                    ",
"          z.A.B.C.D.E.F.G.e 4 f f f f f f H.                    ",
"            ..I I.J.K.K.s f L L L L f f s L.                    ",
"            M.N.O.P.Q.R.S.e L f f f f s s T.                    ",
"            U.V.W.X.Y.Z.`.f f f f f s s f  +        =           ",
"              ( .+++@+#+^.$+f f f f f f %+L.    =   =           ",
"              q &+*+=+-+;+>+,+K '+)+!+~+{+=+    =   =           ",
"                                                =               ",
"                                                                ",
"                            =                                   ",
"                          =   =                                 ",
"                            =                                   "};
