/* XPM */
static char * player_img_up_xpm[] = {
"32 32 27 1",
" 	c #4D9262",
".	c #000000",
"+	c #3E734E",
"@	c #4E5378",
"#	c #D4D7DA",
"$	c #282544",
"%	c #3C3D60",
"&	c #1A1627",
"*	c #9296AD",
"=	c #030000",
"-	c #2A110F",
";	c #47211B",
">	c #7AB055",
",	c #3E1E05",
"'	c #F5C342",
")	c #E6A632",
"!	c #FEE4CD",
"~	c #FFFFFF",
"{	c #FF9D90",
"]	c #141325",
"^	c #77767F",
"/	c #CDCCD5",
"(	c #8F8295",
"_	c #438055",
":	c #6D4F19",
"<	c #D69F3A",
"[	c #6B9A4A",
"                                ",
"            ...        +        ",
"           .@@@.      + +       ",
"        ...@@@#@.      +        ",
"        .@@..@##@.              ",
"         ...@@@@@@..            ",
"        ..$%%@@@@%%$..          ",
"       .&*$$%%%%%%$$*&.         ",
"      =&&&*$$$$$$$$*&&&=        ",
"      .&&&&********&&&&.      - ",
"       .&&&&&&&&&&&&&&.      -;-",
"       >..&&&&&&&&&&..      -;;-",
"       ,,'..........',,    -;-- ",
"       ,'')'')')'')''',   -;--  ",
"       ,'')'')'')'','',  -;--   ",
" >    ,)')'')''')'',)'',-;--    ",
"> >   ,)',)',)'',)'',)',;--     ",
" >     ,),,'),)'',)'',',--      ",
"       ,),)'),)''','',)),       ",
"      ,),',)),,)'),),.,,        ",
"      .,!,)),~~,),,)),{.        ",
"      .!!!,,]],,,]],,!!.        ",
"      .{!{.]]]]]]]].{!{.        ",
"       ...]^^^//^^^]...         ",
"         (]^^^]]^^^](     >     ",
"       __(]^^]]]]^^](__ > >     ",
"      ____(]]]]]]]](:___> >     ",
"      _____((]]]]((<:___>       ",
"       ______((((<<::__         ",
"          ____[_::::            ",
"             > >                ",
"              >                 "};
