/* XPM */
static char * wall_xpm[] = {
"32 32 12 1",
" 	c #4D9262",
".	c #3E734E",
"+	c #C48D69",
"@	c #A07356",
"#	c #8C6449",
"$	c #DFBF90",
"%	c #7AB055",
"&	c #C9AB81",
"*	c #AF9570",
"=	c #B58261",
"-	c #86A35A",
";	c #AAC66B",
"                                ",
"                       .        ",
"                      . .       ",
"                       .        ",
"             ++ ++              ",
"           @+++@@@  ++          ",
"       ++ @#######@++           ",
"        ++#$$$$$$$###@++        ",
"       %@#$$&&&$&&$$$#@         ",
"       %@#$&&$$$$&&$$$#@        ",
"       %@+&&$$$&&$$$&$$@+       ",
"       %++$&&$$&$$$&&$$++       ",
"        +$$$&&$$$$&&$$$+        ",
"        @+$$+$$$**&$$$+@        ",
"        @@+$++&&$**&$+@@        ",
" %      @@=+++$$$$**&+=@        ",
"% %     @@===@+++&***#=@@       ",
" %     @@====@@==&***#=@@- ;    ",
"      -@@====@@===*=*#==@#;;    ",
"     ;#@====@@@===&@&#==@#;     ",
"   ;-;#@====@@@@===@@#=@@#--    ",
"   ;;-#@@==@@@@@====@@@@#;;     ",
"    ;--#@@@@@@@@@==@@@;#;;-     ",
"     -;-#@@@;#@@@;@@#;;---      ",
"    ;-;;-##;;-###;;#-;--- %     ",
"    -;-;---;------;---  --%     ",
"          ----  ----    % %     ",
"           --    --     %       ",
"                                ",
"              %                 ",
"             % %                ",
"              %                 "};
